<svg xmlns="http://www.w3.org/2000/svg" xmlns:xlink="http://www.w3.org/1999/xlink" width="86" zoomAndPan="magnify" viewBox="0 0 64.5 30.000001" height="40" preserveAspectRatio="xMidYMid meet" version="1.0"><defs><g/><clipPath id="34b4861ef4"><path d="M 0.796875 0 L 63.21875 0 L 63.21875 29.03125 L 0.796875 29.03125 Z M 0.796875 0 " clip-rule="nonzero"/></clipPath><clipPath id="7865e91371"><path d="M 15 20 L 23 20 L 23 28 L 15 28 Z M 15 20 " clip-rule="nonzero"/></clipPath><clipPath id="1461b0f2e0"><path d="M 19.585938 20.832031 L 22.574219 23.648438 L 18.636719 27.828125 L 15.648438 25.015625 Z M 19.585938 20.832031 " clip-rule="nonzero"/></clipPath><clipPath id="3213967dd2"><path d="M 19.585938 20.832031 L 22.574219 23.648438 L 18.648438 27.820312 L 15.65625 25.003906 Z M 19.585938 20.832031 " clip-rule="nonzero"/></clipPath><clipPath id="4dabd1528c"><path d="M 14.664062 18.101562 L 25.550781 18.101562 L 25.550781 28.988281 L 14.664062 28.988281 Z M 14.664062 18.101562 " clip-rule="nonzero"/></clipPath></defs><g clip-path="url(#34b4861ef4)"><path fill="#ffffff" d="M 0.796875 0 L 63.21875 0 L 63.21875 29.03125 L 0.796875 29.03125 Z M 0.796875 0 " fill-opacity="1" fill-rule="nonzero"/><path fill="#ffffff" d="M 0.796875 0 L 63.21875 0 L 63.21875 29.03125 L 0.796875 29.03125 Z M 0.796875 0 " fill-opacity="1" fill-rule="nonzero"/></g><g fill="#ff3131" fill-opacity="1"><g transform="translate(4.637473, 26.821406)"><g><path d="M 3.578125 -10.296875 L 1.375 -10.296875 L 1.375 -12.921875 L 3.578125 -12.921875 L 3.578125 -18.328125 C 3.578125 -20.203125 4 -21.632812 4.84375 -22.625 C 5.695312 -23.625 6.945312 -24.125 8.59375 -24.125 C 9.050781 -24.125 9.535156 -24.054688 10.046875 -23.921875 C 10.566406 -23.785156 11.023438 -23.59375 11.421875 -23.34375 L 10.171875 -21.234375 C 9.867188 -21.554688 9.4375 -21.71875 8.875 -21.71875 C 8.082031 -21.71875 7.484375 -21.445312 7.078125 -20.90625 C 6.671875 -20.375 6.46875 -19.503906 6.46875 -18.296875 L 6.46875 -12.921875 L 10.578125 -12.921875 L 10.578125 -10.296875 L 6.46875 -10.296875 L 6.46875 0 L 3.578125 0 Z M 3.578125 -10.296875 "/></g></g></g><g fill="#ff3131" fill-opacity="1"><g transform="translate(14.471689, 26.821406)"><g><path d="M 1.40625 -6.5625 C 1.40625 -7.832031 1.707031 -8.988281 2.3125 -10.03125 C 2.925781 -11.082031 3.773438 -11.910156 4.859375 -12.515625 C 5.953125 -13.117188 7.1875 -13.421875 8.5625 -13.421875 C 9.925781 -13.421875 11.140625 -13.117188 12.203125 -12.515625 C 13.273438 -11.910156 14.109375 -11.085938 14.703125 -10.046875 C 15.296875 -9.015625 15.59375 -7.851562 15.59375 -6.5625 C 15.59375 -5.28125 15.296875 -4.113281 14.703125 -3.0625 C 14.109375 -2.019531 13.269531 -1.195312 12.1875 -0.59375 C 11.113281 0.0078125 9.882812 0.3125 8.5 0.3125 C 7.144531 0.3125 5.925781 0.0234375 4.84375 -0.546875 C 3.769531 -1.117188 2.925781 -1.921875 2.3125 -2.953125 C 1.707031 -3.992188 1.40625 -5.195312 1.40625 -6.5625 Z M 4.328125 -6.53125 C 4.328125 -5.726562 4.507812 -4.984375 4.875 -4.296875 C 5.238281 -3.609375 5.734375 -3.066406 6.359375 -2.671875 C 6.992188 -2.273438 7.695312 -2.078125 8.46875 -2.078125 C 9.664062 -2.078125 10.660156 -2.503906 11.453125 -3.359375 C 12.242188 -4.210938 12.640625 -5.269531 12.640625 -6.53125 C 12.640625 -7.800781 12.242188 -8.863281 11.453125 -9.71875 C 10.660156 -10.582031 9.664062 -11.015625 8.46875 -11.015625 C 7.675781 -11.015625 6.96875 -10.8125 6.34375 -10.40625 C 5.726562 -10 5.238281 -9.453125 4.875 -8.765625 C 4.507812 -8.085938 4.328125 -7.34375 4.328125 -6.53125 Z M 4.328125 -6.53125 "/></g></g></g><g fill="#ff3131" fill-opacity="1"><g transform="translate(29.440925, 26.821406)"><g><path d="M 1.40625 -6.5625 C 1.40625 -7.832031 1.707031 -8.988281 2.3125 -10.03125 C 2.925781 -11.082031 3.773438 -11.910156 4.859375 -12.515625 C 5.953125 -13.117188 7.1875 -13.421875 8.5625 -13.421875 C 9.925781 -13.421875 11.140625 -13.117188 12.203125 -12.515625 C 13.273438 -11.910156 14.109375 -11.085938 14.703125 -10.046875 C 15.296875 -9.015625 15.59375 -7.851562 15.59375 -6.5625 C 15.59375 -5.28125 15.296875 -4.113281 14.703125 -3.0625 C 14.109375 -2.019531 13.269531 -1.195312 12.1875 -0.59375 C 11.113281 0.0078125 9.882812 0.3125 8.5 0.3125 C 7.144531 0.3125 5.925781 0.0234375 4.84375 -0.546875 C 3.769531 -1.117188 2.925781 -1.921875 2.3125 -2.953125 C 1.707031 -3.992188 1.40625 -5.195312 1.40625 -6.5625 Z M 4.328125 -6.53125 C 4.328125 -5.726562 4.507812 -4.984375 4.875 -4.296875 C 5.238281 -3.609375 5.734375 -3.066406 6.359375 -2.671875 C 6.992188 -2.273438 7.695312 -2.078125 8.46875 -2.078125 C 9.664062 -2.078125 10.660156 -2.503906 11.453125 -3.359375 C 12.242188 -4.210938 12.640625 -5.269531 12.640625 -6.53125 C 12.640625 -7.800781 12.242188 -8.863281 11.453125 -9.71875 C 10.660156 -10.582031 9.664062 -11.015625 8.46875 -11.015625 C 7.675781 -11.015625 6.96875 -10.8125 6.34375 -10.40625 C 5.726562 -10 5.238281 -9.453125 4.875 -8.765625 C 4.507812 -8.085938 4.328125 -7.34375 4.328125 -6.53125 Z M 4.328125 -6.53125 "/></g></g></g><g fill="#ff3131" fill-opacity="1"><g transform="translate(44.410163, 26.821406)"><g><path d="M 15.96875 -24.125 L 15.96875 0 L 13.046875 0 L 13.046875 -2.015625 C 12.421875 -1.296875 11.65625 -0.726562 10.75 -0.3125 C 9.851562 0.101562 8.863281 0.3125 7.78125 0.3125 C 6.570312 0.3125 5.476562 0.0195312 4.5 -0.5625 C 3.53125 -1.144531 2.769531 -1.957031 2.21875 -3 C 1.675781 -4.050781 1.40625 -5.257812 1.40625 -6.625 C 1.40625 -8.019531 1.691406 -9.226562 2.265625 -10.25 C 2.847656 -11.28125 3.644531 -12.066406 4.65625 -12.609375 C 5.675781 -13.148438 6.832031 -13.421875 8.125 -13.421875 C 9.101562 -13.421875 10.039062 -13.21875 10.9375 -12.8125 C 11.84375 -12.40625 12.554688 -11.847656 13.078125 -11.140625 L 13.078125 -24.125 Z M 8.6875 -2.171875 C 9.800781 -2.171875 10.75 -2.472656 11.53125 -3.078125 C 12.3125 -3.679688 12.816406 -4.492188 13.046875 -5.515625 L 13.046875 -7.9375 C 12.796875 -8.875 12.265625 -9.632812 11.453125 -10.21875 C 10.640625 -10.8125 9.71875 -11.109375 8.6875 -11.109375 C 7.894531 -11.109375 7.164062 -10.914062 6.5 -10.53125 C 5.84375 -10.144531 5.316406 -9.613281 4.921875 -8.9375 C 4.523438 -8.269531 4.328125 -7.507812 4.328125 -6.65625 C 4.328125 -5.832031 4.523438 -5.078125 4.921875 -4.390625 C 5.316406 -3.703125 5.84375 -3.160156 6.5 -2.765625 C 7.164062 -2.367188 7.894531 -2.171875 8.6875 -2.171875 Z M 8.6875 -2.171875 "/></g></g></g><g clip-path="url(#7865e91371)"><g clip-path="url(#1461b0f2e0)"><g clip-path="url(#3213967dd2)"><path fill="#ffffff" d="M 19.585938 20.832031 L 22.574219 23.648438 L 18.648438 27.816406 L 15.660156 25.003906 Z M 19.585938 20.832031 " fill-opacity="1" fill-rule="nonzero"/></g></g></g><g clip-path="url(#4dabd1528c)"><path fill="#ff3131" d="M 22.851562 23.230469 C 23.472656 22.609375 25.363281 20.554688 25.363281 20.554688 C 25.363281 20.554688 25.230469 20.351562 24.90625 19.976562 L 22.824219 22.058594 C 22.707031 22.175781 22.519531 22.175781 22.402344 22.058594 C 22.285156 21.945312 22.285156 21.757812 22.402344 21.640625 L 24.507812 19.539062 C 24.421875 19.449219 24.332031 19.359375 24.234375 19.261719 C 24.128906 19.152344 24.027344 19.054688 23.929688 18.964844 L 21.847656 21.046875 C 21.730469 21.164062 21.542969 21.164062 21.429688 21.046875 C 21.3125 20.933594 21.3125 20.746094 21.429688 20.628906 L 23.492188 18.566406 C 23.125 18.25 22.921875 18.113281 22.921875 18.113281 C 22.921875 18.113281 21.183594 19.671875 20.238281 20.617188 C 19.1875 21.671875 20.140625 22.640625 19.726562 23.054688 C 19.3125 23.46875 17.414062 25.007812 16.441406 25.980469 C 14.664062 27.757812 14.855469 28.035156 15.144531 28.324219 C 15.433594 28.613281 15.710938 28.804688 17.488281 27.027344 C 18.460938 26.058594 20 24.15625 20.414062 23.742188 C 20.828125 23.328125 21.785156 24.296875 22.851562 23.230469 Z M 22.851562 23.230469 " fill-opacity="1" fill-rule="nonzero"/></g><path stroke-linecap="butt" transform="matrix(0.153199, 0, 0, 0.153199, 19.751834, -2.762441)" fill="none" stroke-linejoin="miter" d="M 4.756138 93.990062 C 7.407922 93.990062 9.52425 91.899232 9.52425 89.247448 L 9.52425 51.230045 C 9.52425 48.654754 11.589582 46.487431 14.241366 46.487431 C 16.816656 46.487431 19.009478 48.578261 19.009478 51.230045 L 19.009478 89.247448 C 19.009478 91.899232 21.100307 93.990062 23.752091 93.990062 C 26.429373 93.990062 28.520203 91.899232 28.520203 89.247448 L 28.520203 51.230045 C 28.520203 48.654754 30.611033 46.487431 33.262817 46.487431 C 35.812609 46.487431 38.00543 48.578261 38.00543 51.230045 L 38.00543 89.247448 C 38.00543 91.899232 40.121758 93.990062 42.748044 93.990062 C 45.425326 93.990062 47.516156 91.899232 47.516156 89.247448 L 47.516156 51.230045 C 47.516156 43.351186 41.039683 36.976706 33.262817 36.976706 C 29.642112 36.976706 26.327382 38.404589 23.752091 40.597411 C 21.176801 38.404589 17.862071 36.976706 14.241366 36.976706 C 12.074042 36.976706 9.983213 37.461166 8.17286 38.404589 C 7.305931 37.563158 6.08203 36.976706 4.756138 36.976706 C 2.078857 36.976706 -0.0119732 39.093033 -0.0119732 41.719319 L -0.0119732 89.247448 C -0.0119732 91.899232 2.078857 93.990062 4.756138 93.990062 Z M 67.455532 113.011513 C 75.33439 113.011513 81.734369 106.637032 81.734369 98.758174 L 81.734369 41.719319 C 81.734369 39.093033 79.643539 36.976706 76.966257 36.976706 C 74.288975 36.976706 72.198145 39.093033 72.198145 41.719319 L 72.198145 79.762221 C 72.198145 82.312013 70.132814 84.479337 67.455532 84.479337 C 64.905739 84.479337 62.712918 82.388507 62.712918 79.762221 L 62.712918 41.719319 C 62.712918 39.093033 60.622088 36.976706 57.970304 36.976706 C 55.293022 36.976706 53.202193 39.093033 53.202193 41.719319 L 53.202193 79.762221 C 53.202193 87.641079 59.678665 93.990062 67.455532 93.990062 C 69.163893 93.990062 70.693768 93.709585 72.198145 93.14863 L 72.198145 98.758174 C 72.198145 101.409958 70.132814 103.500787 67.455532 103.500787 C 64.803748 103.500787 62.712918 105.591617 62.712918 108.243401 C 62.712918 110.920683 64.803748 113.011513 67.455532 113.011513 Z M 67.455532 113.011513 " stroke="#ff3131" stroke-width="3.326379" stroke-opacity="1" stroke-miterlimit="4"/><g fill="#ff3131" fill-opacity="1"><g transform="translate(19.751834, 11.638241)"><g><path d="M 0.726562 0 C 1.136719 0 1.457031 -0.320312 1.457031 -0.726562 L 1.457031 -6.550781 C 1.457031 -6.945312 1.777344 -7.277344 2.183594 -7.277344 C 2.578125 -7.277344 2.910156 -6.957031 2.910156 -6.550781 L 2.910156 -0.726562 C 2.910156 -0.320312 3.230469 0 3.640625 0 C 4.046875 0 4.367188 -0.320312 4.367188 -0.726562 L 4.367188 -6.550781 C 4.367188 -6.945312 4.6875 -7.277344 5.09375 -7.277344 C 5.488281 -7.277344 5.824219 -6.957031 5.824219 -6.550781 L 5.824219 -0.726562 C 5.824219 -0.320312 6.144531 0 6.550781 0 C 6.957031 0 7.277344 -0.320312 7.277344 -0.726562 L 7.277344 -6.550781 C 7.277344 -7.757812 6.289062 -8.734375 5.09375 -8.734375 C 4.542969 -8.734375 4.03125 -8.515625 3.640625 -8.183594 C 3.246094 -8.515625 2.738281 -8.734375 2.183594 -8.734375 C 1.847656 -8.734375 1.527344 -8.664062 1.253906 -8.515625 C 1.121094 -8.648438 0.933594 -8.734375 0.726562 -8.734375 C 0.320312 -8.734375 0 -8.414062 0 -8.007812 L 0 -0.726562 C 0 -0.320312 0.320312 0 0.726562 0 Z M 0.726562 0 "/></g></g></g><g fill="#ff3131" fill-opacity="1"><g transform="translate(27.90334, 11.638241)"><g><path d="M 2.183594 2.910156 C 3.390625 2.910156 4.367188 1.9375 4.367188 0.726562 L 4.367188 -8.007812 C 4.367188 -8.414062 4.046875 -8.734375 3.640625 -8.734375 C 3.230469 -8.734375 2.910156 -8.414062 2.910156 -8.007812 L 2.910156 -2.183594 C 2.910156 -1.789062 2.589844 -1.457031 2.183594 -1.457031 C 1.789062 -1.457031 1.457031 -1.777344 1.457031 -2.183594 L 1.457031 -8.007812 C 1.457031 -8.414062 1.136719 -8.734375 0.726562 -8.734375 C 0.320312 -8.734375 0 -8.414062 0 -8.007812 L 0 -2.183594 C 0 -0.976562 0.988281 0 2.183594 0 C 2.445312 0 2.679688 -0.0429688 2.910156 -0.132812 L 2.910156 0.726562 C 2.910156 1.136719 2.589844 1.457031 2.183594 1.457031 C 1.777344 1.457031 1.457031 1.777344 1.457031 2.183594 C 1.457031 2.589844 1.777344 2.910156 2.183594 2.910156 Z M 2.183594 2.910156 "/></g></g></g></svg>